<?xml version="1.0" standalone="no"?>
<!DOCTYPE svg PUBLIC "-//W3C//DTD SVG 20010904//EN"
 "http://www.w3.org/TR/2001/REC-SVG-20010904/DTD/svg10.dtd">
<svg version="1.0" xmlns="http://www.w3.org/2000/svg"
 width="32.000000pt" height="32.000000pt" viewBox="0 0 32.000000 32.000000"
 preserveAspectRatio="xMidYMid meet">
<metadata>
Created by potrace 1.16, written by Peter Selinger 2001-2019
</metadata>
<g transform="translate(0.000000,32.000000) scale(0.100000,-0.100000)"
fill="#000000" stroke="none">
<path d="M22 303 c-13 -25 -4 -43 19 -43 25 0 35 25 19 45 -16 20 -27 19 -38
-2z"/>
<path d="M265 292 c-17 -10 -45 -36 -64 -58 -105 -121 -101 -117 -122 -98 -20
18 -27 6 -7 -14 20 -20 17 -39 -8 -51 -26 -11 -33 -31 -11 -31 19 0 49 39 41
53 -4 7 7 -1 24 -17 18 -16 35 -26 39 -23 3 4 -2 14 -13 22 -19 14 -18 14 6
39 l25 25 60 -70 c56 -64 75 -80 75 -61 0 4 -29 37 -64 73 l-62 67 63 65 c78
80 88 121 18 79z m-59 -96 c-42 -41 -76 -80 -76 -86 0 -6 -5 -8 -11 -4 -7 4
22 39 72 90 46 46 85 82 87 79 2 -2 -30 -37 -72 -79z"/>
<path d="M51 251 c-13 -10 -21 -23 -17 -30 9 -13 36 -15 36 -1 0 5 -7 7 -15 4
-8 -4 -15 -2 -15 4 0 27 33 19 65 -16 44 -47 46 -30 2 20 -32 38 -32 38 -56
19z"/>
<path d="M16 34 c-9 -22 5 -36 24 -24 13 8 13 11 -1 25 -15 15 -17 15 -23 -1z"/>
</g>
</svg>
